<?xml version="1.0" encoding="UTF-8" standalone="no"?>
<svg
   version="1.0"
   width="747.000000pt"
   height="747.000000pt"
   viewBox="0 0 747.000000 747.000000"
   preserveAspectRatio="xMidYMid meet"
   id="svg78"
   sodipodi:docname="logo.svg"
   inkscape:export-filename="../../Downloads/original.png"
   inkscape:export-xdpi="98.698822"
   inkscape:export-ydpi="98.698822"
   inkscape:version="1.2.2 (b0a8486541, 2022-12-01)"
   xmlns:inkscape="http://www.inkscape.org/namespaces/inkscape"
   xmlns:sodipodi="http://sodipodi.sourceforge.net/DTD/sodipodi-0.dtd"
   xmlns="http://www.w3.org/2000/svg"
   xmlns:svg="http://www.w3.org/2000/svg">
  <defs
     id="defs82" />
  <sodipodi:namedview
     id="namedview80"
     pagecolor="#505050"
     bordercolor="#ffffff"
     borderopacity="1"
     inkscape:showpageshadow="0"
     inkscape:pageopacity="0"
     inkscape:pagecheckerboard="1"
     inkscape:deskcolor="#505050"
     inkscape:document-units="pt"
     showgrid="false"
     inkscape:zoom="0.35355339"
     inkscape:cx="349.31075"
     inkscape:cy="456.79098"
     inkscape:window-width="1884"
     inkscape:window-height="996"
     inkscape:window-x="1935"
     inkscape:window-y="63"
     inkscape:window-maximized="1"
     inkscape:current-layer="svg78" />
  <metadata
     id="metadata2">
Created by potrace 1.14, written by Peter Selinger 2001-2017
</metadata>
  <rect
     style="fill:#2a2434;fill-opacity:1;stroke:none;stroke-width:0.227;stroke-linecap:round;stroke-dasharray:none;stroke-opacity:1"
     id="rect1071"
     width="746.99976"
     height="747"
     x="0"
     y="2.7755576e-17"
     ry="282.40271" />
  <g
     transform="matrix(0.08344096,0,0,-0.08344096,64.166299,685.18477)"
     fill="#000000"
     stroke="none"
     id="g76"
     style="fill:#ffffff;fill-opacity:1">
    <path
       d="m 2420,7277 c -41,-23 -97,-56 -123,-72 -84,-52 -212,-134 -222,-142 -5,-5 -55,-43 -110,-85 -55,-42 -116,-91 -135,-108 -286,-255 -403,-376 -563,-585 -43,-55 -82,-105 -87,-112 -5,-6 -28,-40 -50,-75 -22,-35 -43,-67 -47,-73 -16,-20 -72,-112 -128,-208 -117,-205 -261,-539 -309,-717 -10,-36 -24,-79 -32,-96 -7,-17 -16,-42 -18,-55 -3,-13 -5,-24 -6,-24 -1,0 -3,-8 -5,-17 -2,-9 -8,-40 -15,-70 -7,-29 -14,-62 -16,-73 -1,-11 -5,-30 -8,-41 -2,-12 -7,-37 -10,-55 -3,-19 -8,-45 -11,-59 -3,-14 -7,-41 -10,-60 -3,-19 -7,-46 -10,-60 -3,-14 -7,-50 -10,-80 -2,-30 -7,-80 -10,-110 -19,-159 -20,-464 -1,-710 3,-41 8,-84 10,-95 2,-12 7,-48 11,-80 4,-33 9,-69 11,-80 2,-11 7,-40 10,-65 3,-25 9,-49 12,-54 6,-10 19,-69 46,-201 22,-108 130,-425 195,-573 23,-52 39,-98 36,-103 -9,-13 -234,-169 -245,-169 -6,0 -10,-3 -10,-8 0,-4 -20,-18 -45,-32 -25,-14 -45,-28 -45,-32 0,-5 -5,-8 -10,-8 -6,0 -16,-5 -23,-10 -7,-6 -38,-27 -69,-46 -32,-20 -58,-40 -58,-46 0,-6 8,-4 18,5 9,8 44,30 77,47 33,17 80,42 105,56 93,53 328,174 338,174 5,0 29,-37 52,-82 23,-46 50,-94 60,-108 9,-14 20,-32 23,-40 4,-8 16,-28 27,-45 11,-16 27,-43 36,-59 9,-17 46,-73 82,-125 99,-144 105,-154 128,-181 12,-14 59,-70 105,-125 197,-238 502,-516 739,-675 12,-8 39,-26 59,-40 158,-111 367,-227 551,-305 36,-15 88,-38 115,-50 28,-13 61,-27 75,-30 14,-4 30,-11 35,-15 13,-10 202,-71 240,-77 17,-3 35,-9 40,-13 8,-7 58,-23 110,-36 27,-7 153,-35 175,-39 14,-3 36,-8 50,-11 13,-3 38,-7 55,-10 16,-2 41,-6 55,-9 31,-6 80,-12 150,-19 30,-3 78,-8 105,-11 119,-11 226,-18 315,-18 154,0 403,13 435,23 17,5 55,12 85,15 30,4 75,9 100,12 25,2 56,6 70,8 69,7 338,70 411,95 30,11 64,20 75,20 11,0 24,4 29,9 6,5 24,11 40,14 17,2 44,9 60,16 17,7 55,22 85,33 30,11 61,25 68,31 6,5 12,7 12,4 0,-6 105,40 240,106 88,43 431,235 440,247 3,3 43,32 90,65 47,32 97,70 113,83 48,45 29,70 -33,45 -102,-42 -469,-163 -494,-163 -9,0 -25,-4 -34,-9 -10,-5 -38,-12 -62,-16 -25,-4 -85,-15 -135,-25 -49,-10 -117,-21 -150,-24 -33,-3 -73,-8 -90,-11 -109,-18 -302,-29 -490,-29 -159,1 -175,3 -239,28 -134,51 -270,140 -372,245 -94,95 -95,100 -62,193 23,66 25,78 13,88 -12,10 -20,1 -45,-56 l -31,-68 -20,29 c -32,49 -152,297 -154,320 0,6 -3,15 -7,20 -7,11 -57,141 -62,160 -2,6 -6,17 -9,25 -3,8 -22,60 -40,115 l -35,101 29,32 c 40,45 45,76 24,139 -10,29 -16,54 -14,56 2,1 21,11 43,22 61,31 102,78 118,137 18,65 9,113 -32,181 -41,66 -39,74 19,76 50,1 55,-2 94,-49 22,-26 30,-21 33,23 1,17 2,37 3,44 0,6 14,16 31,21 25,9 30,8 35,-8 3,-10 5,-22 3,-26 -4,-19 16,-80 37,-114 44,-69 105,-89 214,-68 88,17 96,16 99,-10 2,-13 -4,-32 -14,-43 -19,-21 -16,-23 19,-10 15,6 27,21 32,38 9,38 23,53 51,53 31,0 36,11 22,51 -6,19 -11,61 -12,94 -1,46 -4,60 -16,60 -8,0 -16,-10 -18,-23 -3,-22 -4,-22 -43,11 -21,19 -58,40 -81,47 -24,8 -47,16 -53,19 -5,3 -17,6 -25,8 -41,6 -86,15 -93,20 -5,3 10,23 33,45 28,28 46,38 58,33 9,-3 29,-9 45,-12 33,-7 36,13 7,50 -24,30 -23,32 59,142 86,114 95,120 135,90 44,-33 53,-15 22,43 -10,19 -16,35 -14,37 19,17 125,72 134,68 8,-3 5,-24 -11,-72 -27,-80 -33,-106 -22,-106 18,0 28,-35 17,-56 -9,-16 -14,-18 -26,-9 -15,13 -17,10 -59,-115 -13,-38 -21,-73 -19,-77 10,-15 33,-8 39,12 4,11 10,18 15,15 4,-3 41,-7 81,-9 93,-6 157,15 237,78 68,54 84,58 73,18 -25,-87 -88,-151 -182,-187 -38,-15 -71,-31 -74,-35 -3,-5 9,-13 27,-18 27,-7 33,-13 30,-33 -9,-91 -8,-116 10,-177 11,-37 28,-74 38,-83 38,-33 175,1 237,57 21,19 48,37 61,40 28,8 46,47 33,72 -5,9 -20,39 -32,66 -25,51 -95,130 -108,122 -4,-3 -17,2 -29,10 -21,14 -21,16 -5,42 10,15 21,30 26,33 5,3 8,8 7,10 0,2 6,22 15,44 10,21 19,62 22,90 7,70 14,76 71,61 26,-7 79,-12 118,-11 61,1 81,6 151,42 79,41 83,41 194,44 63,1 126,6 140,10 15,4 31,3 37,-3 5,-5 20,-8 33,-6 22,3 22,4 5,21 -15,15 -35,17 -154,14 -75,-2 -146,-7 -157,-12 -17,-8 -16,-4 7,26 30,40 23,69 -17,69 -28,0 -129,45 -145,66 -15,17 -7,30 23,38 28,7 117,49 166,77 19,12 63,32 98,47 72,29 77,42 37,102 -23,34 -25,43 -16,70 12,32 7,56 -16,79 -8,8 -12,27 -10,43 3,15 1,28 -4,28 -5,0 -7,4 -4,9 4,5 -9,19 -27,30 -18,11 -39,31 -46,45 -15,27 -50,46 -86,46 -18,0 -32,11 -50,40 -14,22 -25,43 -25,47 -1,5 -9,18 -20,31 l -19,22 -53,-31 c -103,-60 -223,-144 -248,-173 -14,-16 -31,-43 -39,-60 -14,-31 -19,-156 -8,-209 5,-22 0,-34 -19,-52 -29,-27 -57,-36 -75,-24 -11,6 -10,21 3,81 18,78 18,110 0,174 -10,36 -9,48 12,103 14,34 25,63 24,64 -1,7 26,98 39,132 16,41 19,52 28,120 l 6,40 -29,-45 c -16,-25 -50,-111 -76,-192 l -48,-146 -44,33 c -48,37 -77,45 -164,48 -44,1 -68,-5 -118,-30 l -63,-32 -27,39 c -57,81 -104,88 -220,30 -44,-22 -84,-40 -90,-40 -5,0 -14,-6 -20,-13 -9,-10 -6,-21 11,-45 38,-53 122,-89 197,-83 92,7 85,10 88,-34 4,-48 16,-63 36,-46 12,10 19,5 42,-31 48,-76 119,-128 177,-128 22,0 23,2 25,110 2,81 -1,117 -12,138 -16,31 -56,62 -79,62 -8,0 -20,6 -26,13 -32,39 143,47 196,9 49,-35 56,-49 60,-123 3,-69 -6,-97 -44,-137 -7,-7 -20,-36 -30,-64 -19,-54 -53,-95 -137,-163 -27,-22 -54,-45 -60,-50 -34,-32 -115,-84 -120,-77 -3,5 -7,29 -10,53 -15,153 -117,281 -241,305 l -35,6 v -46 c 0,-55 1,-49 -17,-109 -20,-70 -25,-173 -9,-211 14,-32 56,-86 56,-71 0,16 40,-29 67,-74 30,-50 36,-71 22,-71 -5,0 -9,-5 -9,-10 0,-10 -95,-109 -151,-158 -25,-22 -28,-23 -63,-8 -38,16 -53,8 -38,-21 15,-32 8,-46 -39,-69 -85,-43 -187,-50 -294,-21 -67,18 -164,64 -188,90 -39,41 -40,45 -17,82 l 22,36 -23,-5 c -13,-3 -34,-7 -46,-10 -24,-5 -47,20 -76,84 -57,126 -55,150 9,99 123,-99 216,-127 359,-107 92,13 208,128 230,229 25,109 6,210 -56,301 l -38,57 33,28 c 55,46 71,86 56,140 -9,33 -109,193 -120,193 -13,0 -46,-36 -71,-75 -21,-35 -24,-52 -24,-130 v -90 l -28,-3 c -35,-4 -52,10 -76,62 -18,41 -63,92 -78,90 -4,-1 -19,3 -33,8 -13,5 -50,12 -82,15 -46,4 -58,3 -58,-9 0,-8 -9,-33 -21,-57 -15,-32 -19,-54 -15,-89 14,-117 18,-147 22,-151 2,-2 30,-6 61,-7 87,-6 123,-14 123,-27 0,-7 -7,-30 -15,-52 -8,-22 -14,-52 -15,-67 v -26 l 88,4 c 165,8 193,22 221,107 11,32 15,36 28,26 29,-24 45,-83 45,-160 0,-87 -15,-126 -69,-176 -102,-95 -240,-104 -360,-26 -47,31 -142,128 -152,156 -2,6 -12,20 -23,31 -10,11 -18,26 -18,33 0,7 -4,13 -10,13 -5,0 -10,5 -10,11 0,5 -23,44 -50,86 -27,42 -50,80 -50,84 0,5 -4,9 -9,9 -9,0 -81,141 -81,158 0,6 -9,29 -20,53 -27,61 -25,92 9,132 39,44 201,151 431,287 8,4 220,132 472,284 251,152 461,276 466,276 6,0 12,4 14,8 5,13 206,123 227,125 11,1 19,6 18,11 -1,5 66,55 148,111 137,92 351,242 400,280 11,8 -43,-17 -120,-56 -241,-122 -300,-154 -303,-161 -2,-5 -8,-8 -13,-8 -6,0 -34,-15 -63,-32 -96,-60 -87,-58 -128,-35 -38,21 -59,18 -41,-5 31,-40 8,-64 -150,-153 -22,-13 -186,-113 -302,-184 -49,-30 -92,-54 -94,-52 -2,1 -7,-1 -10,-6 -3,-5 -62,-42 -131,-83 -69,-41 -126,-78 -128,-82 -2,-5 -7,-8 -12,-8 -5,0 -47,-24 -94,-52 -144,-88 -160,-98 -178,-104 -10,-4 -18,-10 -18,-15 0,-5 -4,-9 -9,-9 -12,0 -114,-62 -123,-75 -4,-5 -8,-6 -8,-1 0,5 -8,2 -17,-6 -29,-26 -223,-134 -255,-143 -5,-2 -9,-3 -10,-5 -16,-12 -41,-3 -57,19 -20,27 -218,610 -371,1091 -45,140 -84,262 -87,270 -3,8 -7,20 -8,25 -1,6 -10,33 -20,60 -9,28 -18,55 -19,60 -1,6 -22,71 -45,145 -24,74 -52,164 -63,200 -11,36 -23,74 -28,85 -4,11 -15,45 -25,75 -9,30 -34,111 -56,180 -41,127 -81,255 -117,368 l -21,64 21,-5 c 12,-3 34,1 49,9 15,7 41,14 57,14 41,0 45,10 16,33 -19,15 -46,21 -99,25 l -72,4 -33,107 c -19,58 -34,108 -35,111 -1,3 -4,12 -8,20 -3,8 -20,61 -37,118 -37,121 -42,107 74,227 94,97 110,115 105,114 -2,0 -38,-19 -79,-42 z m -261,-389 c 6,-18 12,-49 14,-68 3,-19 7,-42 10,-50 3,-8 8,-33 11,-55 3,-22 8,-51 10,-65 10,-50 35,-216 41,-265 4,-27 8,-57 10,-65 2,-8 7,-42 11,-75 3,-33 8,-71 9,-85 16,-130 19,-164 30,-285 25,-298 29,-456 29,-970 0,-449 -5,-699 -18,-897 -4,-59 -18,-88 -42,-88 -14,0 -133,-79 -162,-108 -11,-11 -33,-28 -51,-38 -17,-10 -31,-22 -31,-26 0,-16 27,-8 61,18 19,14 53,35 76,45 23,11 55,30 70,43 16,13 37,26 48,28 22,3 23,-16 11,-172 -4,-47 -9,-114 -11,-150 -5,-65 -7,-89 -20,-235 -9,-100 -9,-97 -19,-113 -9,-15 -96,-73 -163,-109 -41,-22 -51,-23 -287,-23 h -246 l -6,28 c -3,15 -19,63 -33,107 -30,87 -30,115 -1,115 10,0 21,4 24,9 4,5 -7,7 -22,5 -35,-6 -44,4 -67,76 -10,30 -20,62 -23,70 -3,8 -7,24 -9,35 -1,11 -7,29 -13,40 -5,11 -16,58 -25,105 -8,47 -17,94 -19,105 -2,11 -6,36 -10,55 -3,19 -9,46 -11,60 -6,27 -10,54 -20,140 -3,30 -7,69 -10,85 -28,211 -23,710 9,880 3,17 8,50 12,75 3,25 7,52 9,60 3,8 7,31 10,50 3,19 17,89 31,155 14,66 27,133 30,150 12,60 86,285 141,425 96,243 236,509 379,720 120,177 204,289 216,290 3,0 11,-15 17,-32 z m 339,-998 c 12,-36 22,-74 24,-85 2,-11 5,-22 8,-25 5,-4 31,-85 91,-280 11,-36 21,-72 24,-80 2,-8 4,-16 5,-17 2,-2 3,-6 5,-10 1,-5 4,-15 8,-23 3,-8 33,-103 67,-210 34,-107 107,-332 162,-500 55,-168 101,-309 102,-315 1,-5 4,-14 8,-20 6,-10 54,-165 84,-269 23,-81 26,-166 8,-234 -13,-49 -24,-66 -84,-124 -57,-55 -254,-195 -310,-221 -18,-8 -53,-30 -60,-37 -3,-3 -52,-34 -108,-68 l -104,-63 6,63 c 4,35 9,86 11,113 3,28 7,79 9,115 3,36 7,100 10,143 3,42 8,111 11,154 3,42 8,80 11,84 2,4 0,10 -6,14 -6,4 -7,11 -4,17 8,13 9,40 20,393 9,310 9,728 0,985 -7,217 -14,337 -30,543 -4,51 7,36 32,-43 z m 686,-2304 c 46,-19 74,-51 107,-121 26,-56 86,-210 94,-245 2,-8 13,-41 24,-72 11,-32 19,-58 18,-59 -10,-5 -95,-8 -278,-9 -118,-1 -221,-5 -228,-10 -32,-19 35,-28 234,-30 254,-2 283,-4 295,-16 8,-8 159,-402 164,-429 1,-5 8,-21 16,-35 7,-14 12,-25 11,-25 -3,0 -6,10 65,-185 30,-85 62,-175 71,-200 8,-25 21,-59 29,-77 8,-17 14,-37 14,-45 0,-8 3,-18 7,-22 4,-3 8,-12 9,-19 2,-7 16,-50 33,-97 40,-115 145,-423 151,-445 9,-31 51,-146 69,-185 11,-25 22,-57 25,-72 2,-14 25,-92 51,-171 25,-80 48,-154 50,-166 3,-11 7,-30 9,-41 4,-17 1,-19 -22,-14 -46,10 -95,25 -132,39 -29,11 -202,62 -235,69 -5,1 -26,9 -45,18 -19,9 -84,35 -145,59 -126,49 -409,191 -442,222 -13,11 -23,18 -23,14 0,-4 -25,9 -55,28 -30,19 -57,35 -60,35 -3,0 -11,5 -18,10 -7,6 -52,39 -101,73 -144,100 -168,118 -182,130 -7,7 -19,17 -26,22 -113,87 -154,123 -335,299 -141,137 -144,140 -138,175 7,44 22,143 29,192 9,58 19,152 20,177 1,12 3,22 6,22 3,0 6,15 6,33 1,17 4,52 8,77 16,114 22,157 32,250 4,30 8,62 9,70 6,45 21,184 24,218 1,9 28,12 102,12 90,0 100,2 97,18 -3,14 -17,17 -96,20 l -92,3 4,52 c 2,29 4,61 5,73 1,12 13,27 29,35 15,7 38,21 52,30 40,27 340,203 403,237 65,36 170,79 207,85 14,2 29,5 33,6 4,0 23,-5 41,-13 z m 2016,-66 c -8,-27 -40,-82 -40,-68 0,11 39,98 44,98 3,0 1,-13 -4,-30 z m -1160,-9 c 0,-17 -25,-30 -40,-20 -13,8 -13,10 0,19 19,12 40,13 40,1 z m 1380,-120 c 3,-3 23,-19 45,-36 97,-72 116,-95 79,-95 -33,0 -92,-43 -114,-84 -39,-70 -37,-70 -94,-21 -29,24 -85,61 -126,81 l -73,36 59,38 c 142,90 200,111 224,81 z m -240,-218 c 8,-3 21,-7 27,-9 7,-1 24,-12 39,-23 l 27,-21 -62,-1 c -33,-1 -65,-3 -71,-4 -5,-1 -13,-3 -18,-4 -4,0 -18,-11 -32,-23 -61,-55 -61,-55 -38,14 11,34 25,69 30,75 10,12 64,10 98,-4 z m -2945,-82 c -8,-13 -35,-15 -35,-2 0,5 8,11 18,13 21,5 26,2 17,-11 z m -275,-60 c 2,0 -41,-28 -95,-61 -55,-33 -107,-65 -115,-70 -8,-5 -32,-19 -52,-30 l -37,-20 -20,42 c -35,78 -51,120 -51,134 0,10 36,12 183,10 100,-2 184,-4 187,-5 z m 266,-58 c -3,-38 -7,-84 -10,-103 -4,-34 -15,-122 -21,-187 -2,-17 -6,-49 -10,-71 -3,-22 -8,-62 -11,-88 -2,-27 -6,-60 -9,-74 -2,-14 -7,-52 -11,-85 -3,-33 -8,-69 -10,-80 -2,-11 -7,-42 -10,-70 -10,-82 -20,-83 -79,-7 -61,78 -194,274 -215,317 -8,17 -19,37 -26,45 -26,33 -118,210 -112,214 30,20 154,99 188,120 25,15 52,31 60,36 76,47 150,89 150,84 0,-3 8,0 18,5 9,6 39,11 65,11 h 49 z m 1574,-323 c 15,-11 83,-46 151,-79 173,-84 228,-138 233,-231 2,-37 -3,-55 -24,-86 -14,-22 -30,-38 -35,-36 -6,1 -9,25 -7,52 3,57 -14,96 -64,150 -19,19 -45,49 -58,65 l -25,30 -19,-21 c -20,-21 -44,-68 -60,-119 l -9,-30 -17,40 c -10,22 -19,45 -20,50 -2,6 -6,17 -9,25 -24,55 -76,210 -71,210 3,0 18,-9 34,-20 z M 4430,810 c 85,-81 85,-81 13,-65 -33,7 -69,14 -98,19 -13,3 -29,7 -34,10 -8,6 19,116 29,116 3,-1 43,-37 90,-80 z"
       id="path4"
       style="fill:#ffffff;fill-opacity:1" />
    <path
       d="m 1928,3670 c -47,-48 -54,-84 -9,-48 25,19 57,75 49,84 -2,1 -20,-15 -40,-36 z"
       id="path6"
       style="fill:#ffffff;fill-opacity:1" />
    <path
       d="m 1677,3476 c -27,-21 -2,-30 28,-10 14,9 25,18 25,20 0,9 -37,2 -53,-10 z"
       id="path8"
       style="fill:#ffffff;fill-opacity:1" />
    <path
       d="m 1580,3421 c 0,-17 18,-21 24,-6 3,9 0,15 -9,15 -8,0 -15,-4 -15,-9 z"
       id="path10"
       style="fill:#ffffff;fill-opacity:1" />
    <path
       d="m 2706,4234 c -17,-17 -21,-44 -7,-44 5,0 11,3 13,8 2,4 16,17 32,30 l 29,22 h -26 c -14,0 -33,-7 -41,-16 z"
       id="path12"
       style="fill:#ffffff;fill-opacity:1" />
    <path
       d="m 2528,4108 c -20,-25 -15,-40 10,-31 20,8 32,23 32,41 0,19 -23,14 -42,-10 z"
       id="path14"
       style="fill:#ffffff;fill-opacity:1" />
    <path
       d="m 2664,3069 c -13,-22 15,-30 102,-27 75,3 89,6 92,21 3,15 -6,17 -92,17 -57,0 -97,-4 -102,-11 z"
       id="path16"
       style="fill:#ffffff;fill-opacity:1" />
    <path
       d="m 6241,6815 c -2,-22 -34,-65 -49,-65 -5,0 -12,-6 -15,-14 -5,-11 0,-11 24,1 31,16 53,55 46,82 -3,12 -5,10 -6,-4 z"
       id="path18"
       style="fill:#ffffff;fill-opacity:1" />
    <path
       d="m 6165,6670 c -3,-5 -4,-10 0,-10 3,0 1,-9 -5,-21 -6,-11 -17,-18 -23,-16 -21,7 -46,-12 -66,-51 -17,-34 -18,-41 -5,-72 8,-18 13,-39 10,-45 -2,-6 2,-19 10,-30 8,-10 14,-30 14,-44 1,-23 2,-24 11,-8 6,10 13,30 15,45 3,15 6,32 8,37 2,6 0,19 -4,30 -8,22 18,92 50,132 11,14 20,34 20,44 0,20 -24,26 -35,9 z"
       id="path20"
       style="fill:#ffffff;fill-opacity:1" />
    <path
       d="m 5963,6620 c -17,-15 -39,-32 -49,-38 -24,-13 -17,-20 28,-27 40,-7 55,5 64,52 8,42 -6,46 -43,13 z"
       id="path22"
       style="fill:#ffffff;fill-opacity:1" />
    <path
       d="m 5778,6472 c -32,-19 -36,-32 -10,-32 21,1 52,23 52,39 0,15 -10,14 -42,-7 z"
       id="path24"
       style="fill:#ffffff;fill-opacity:1" />
    <path
       d="m 2810,6420 c 0,-25 85,-96 131,-109 53,-15 67,-25 99,-74 25,-37 53,-45 57,-17 3,15 -132,112 -172,124 -11,3 -31,16 -45,28 -64,57 -70,61 -70,48 z"
       id="path26"
       style="fill:#ffffff;fill-opacity:1" />
    <path
       d="m 6044,6260 c -14,-6 -27,-29 -43,-79 -39,-125 -40,-128 -26,-147 12,-16 13,-16 24,5 24,43 80,233 69,230 -2,0 -12,-4 -24,-9 z"
       id="path28"
       style="fill:#ffffff;fill-opacity:1" />
    <path
       d="m 5374,6183 c -3,-10 -10,-26 -15,-37 -7,-12 -7,-16 0,-12 15,10 41,66 30,66 -5,0 -12,-8 -15,-17 z"
       id="path30"
       style="fill:#ffffff;fill-opacity:1" />
    <path
       d="m 3221,6111 -23,-6 28,-15 c 16,-8 54,-34 84,-57 30,-23 67,-51 82,-63 35,-26 39,-25 27,8 -5,15 -37,47 -71,72 -81,60 -99,68 -127,61 z"
       id="path32"
       style="fill:#ffffff;fill-opacity:1" />
    <path
       d="m 5108,5997 c -16,-6 -28,-14 -28,-19 0,-4 -5,-8 -10,-8 -14,0 -60,-46 -60,-60 0,-22 39,-8 73,28 20,20 46,45 59,54 26,20 9,22 -34,5 z"
       id="path34"
       style="fill:#ffffff;fill-opacity:1" />
    <path
       d="m 5904,5868 c -10,-24 -18,-45 -19,-48 0,-3 -11,-35 -23,-71 -31,-91 -33,-106 -15,-113 23,-9 28,0 16,27 -12,26 -2,53 29,75 10,7 18,25 18,39 0,14 10,42 21,63 21,36 21,70 0,70 -5,0 -17,-19 -27,-42 z"
       id="path36"
       style="fill:#ffffff;fill-opacity:1" />
    <path
       d="m 4900,5830 c -24,-8 -23,-8 8,-9 20,-1 31,3 27,9 -3,6 -7,10 -8,9 -1,-1 -13,-5 -27,-9 z"
       id="path38"
       style="fill:#ffffff;fill-opacity:1" />
    <path
       d="m 3747,5726 c 43,-41 108,-97 146,-125 64,-48 67,-49 67,-26 0,15 -11,35 -26,48 -15,12 -32,27 -38,32 -6,6 -36,21 -66,33 -31,13 -66,36 -79,53 -13,16 -37,37 -53,45 -18,10 1,-14 49,-60 z"
       id="path40"
       style="fill:#ffffff;fill-opacity:1" />
    <path
       d="m 4615,5643 c -22,-15 -61,-43 -86,-62 -25,-20 -58,-45 -73,-56 -89,-64 -139,-105 -133,-111 9,-9 56,15 85,44 17,16 50,37 74,46 24,10 52,30 63,46 20,29 37,41 88,60 30,11 45,36 30,51 -5,5 -24,-2 -48,-18 z"
       id="path42"
       style="fill:#ffffff;fill-opacity:1" />
    <path
       d="m 5791,5501 c -21,-13 -30,-65 -15,-86 17,-22 17,-22 37,37 12,36 13,48 3,51 -7,3 -18,2 -25,-2 z"
       id="path44"
       style="fill:#ffffff;fill-opacity:1" />
    <path
       d="m 5741,5351 c -7,-5 -9,-11 -4,-14 6,-4 19,0 29,8 15,11 16,14 4,15 -8,0 -21,-4 -29,-9 z"
       id="path46"
       style="fill:#ffffff;fill-opacity:1" />
    <path
       d="m 5699,5233 c -6,-16 -13,-40 -16,-55 -3,-16 -10,-28 -16,-28 -6,0 -7,-3 -4,-7 4,-3 0,-17 -8,-30 -9,-13 -13,-23 -10,-23 2,0 0,-12 -6,-27 -6,-16 -12,-35 -15,-43 -2,-8 -19,-64 -38,-125 -29,-93 -32,-111 -19,-118 8,-5 16,-7 17,-5 11,13 46,98 50,118 2,14 9,37 15,53 6,15 8,27 5,27 -4,0 -1,7 6,15 7,8 9,15 4,15 -4,0 -3,5 4,12 7,7 12,20 12,29 0,10 9,38 20,64 17,39 26,72 31,113 7,46 -16,56 -32,15 z"
       id="path48"
       style="fill:#ffffff;fill-opacity:1" />
    <path
       d="m 3986,5176 c -28,-23 -38,-38 -33,-50 5,-13 11,-15 24,-7 31,16 55,49 51,70 -3,19 -6,18 -42,-13 z"
       id="path50"
       style="fill:#ffffff;fill-opacity:1" />
    <path
       d="m 4532,5171 c -9,-5 -6,-15 13,-37 l 25,-29 v 26 c 0,30 -20,51 -38,40 z"
       id="path52"
       style="fill:#ffffff;fill-opacity:1" />
    <path
       d="m 3796,5020 c -19,-17 -67,-47 -108,-67 -40,-20 -74,-40 -76,-45 -2,-4 -8,-8 -13,-8 -6,0 -20,-10 -32,-21 -21,-20 -21,-21 -2,-16 11,3 33,8 49,12 24,5 62,27 103,60 7,6 34,25 61,44 49,35 81,71 62,71 -5,0 -25,-14 -44,-30 z"
       id="path54"
       style="fill:#ffffff;fill-opacity:1" />
    <path
       d="m 3498,4827 c -7,-7 -33,-27 -58,-44 -25,-17 -56,-44 -70,-60 -14,-16 -34,-36 -45,-44 -11,-8 -21,-21 -23,-29 -3,-10 4,-8 20,8 14,12 29,22 36,22 6,0 35,23 64,50 29,28 58,50 65,50 6,0 18,14 27,30 15,31 7,40 -16,17 z"
       id="path56"
       style="fill:#ffffff;fill-opacity:1" />
    <path
       d="m 5468,4467 c 18,-7 59,-37 90,-67 31,-30 68,-61 81,-68 13,-8 40,-23 60,-34 50,-28 77,-48 66,-48 -10,0 12,-18 70,-56 45,-30 33,-11 -29,45 -21,20 -66,62 -100,94 -34,31 -76,61 -95,67 -19,5 -46,23 -60,40 -20,25 -36,32 -71,36 l -45,4 z"
       id="path58"
       style="fill:#ffffff;fill-opacity:1" />
    <path
       d="m 6102,4002 c 85,-73 108,-85 108,-57 0,33 -70,85 -115,85 h -26 z"
       id="path60"
       style="fill:#ffffff;fill-opacity:1" />
    <path
       d="m 6453,3777 c 4,-10 7,-23 7,-27 0,-13 63,-70 77,-70 6,0 13,-6 16,-12 2,-7 8,-10 12,-6 4,4 -3,22 -16,40 -30,42 -38,50 -74,74 -27,18 -29,18 -22,1 z"
       id="path62"
       style="fill:#ffffff;fill-opacity:1" />
    <path
       d="m 6674,3604 c 20,-20 36,-40 36,-44 0,-5 10,-12 23,-15 66,-19 64,-20 37,10 -26,29 -107,85 -123,85 -5,0 7,-16 27,-36 z"
       id="path64"
       style="fill:#ffffff;fill-opacity:1" />
    <path
       d="m 6820,3501 c 0,-6 12,-23 26,-38 l 25,-28 -6,30 c -6,28 -20,44 -37,45 -5,0 -8,-4 -8,-9 z"
       id="path66"
       style="fill:#ffffff;fill-opacity:1" />
    <path
       d="m 7099,3270 c 35,-34 41,-77 17,-134 -11,-26 -22,-35 -53,-43 -21,-5 -176,-11 -343,-12 -446,-4 -463,-5 -467,-17 -2,-6 9,-14 24,-17 32,-7 1163,-8 1163,-2 0,10 -75,85 -85,85 -5,0 -33,20 -60,45 -28,25 -53,45 -57,45 -4,0 -13,6 -20,13 -25,25 -105,67 -128,67 -22,0 -22,-1 9,-30 z"
       id="path68"
       style="fill:#ffffff;fill-opacity:1" />
    <path
       d="m 4867,2670 c -6,-25 9,-36 29,-20 11,10 12,16 3,26 -16,19 -26,17 -32,-6 z"
       id="path70"
       style="fill:#ffffff;fill-opacity:1" />
    <path
       d="m 4725,2238 c -35,-98 -158,-484 -161,-503 0,-5 -6,-23 -12,-38 -7,-16 -12,-33 -12,-39 0,-10 -23,-67 -41,-100 -5,-10 -7,-18 -3,-18 16,0 45,24 58,48 16,31 106,304 135,407 10,39 29,95 41,125 21,52 25,72 21,113 -1,20 -19,23 -26,5 z"
       id="path72"
       style="fill:#ffffff;fill-opacity:1" />
    <path
       d="m 4472,1421 c -12,-7 -47,-110 -39,-117 6,-7 53,58 59,82 7,27 -4,45 -20,35 z"
       id="path74"
       style="fill:#ffffff;fill-opacity:1" />
  </g>
</svg>
